<svg width="320" height="200" viewBox="0 0 321 200" fill="none" xmlns="http://www.w3.org/2000/svg">
<g clip-path="url(#clip0_869_694)">
<rect x="0.5" width="320" height="200" rx="2" fill="#181240"/>
<g clip-path="url(#clip1_869_694)">
<path d="M127.016 109.333H110.5V103.111L121.213 84.4444H130.14L119.427 103.111H127.016V96.4444H135.05V103.111H138.175V109.333H135.05V115.556H127.016V109.333ZM165.42 92.8889C165.42 91.1111 164.528 90.2222 162.742 90.2222H157.832C156.047 90.2222 155.154 91.1111 155.154 92.8889V107.111C155.154 108.889 156.047 109.778 157.832 109.778H162.742C164.528 109.778 165.42 108.889 165.42 107.111V92.8889ZM173.455 107.111C173.455 110.222 172.741 112.489 171.312 113.911C169.914 115.304 167.652 116 164.528 116H156.047C152.922 116 150.646 115.304 149.217 113.911C147.819 112.489 147.119 110.222 147.119 107.111V92.8889C147.119 89.7778 147.819 87.5259 149.217 86.1333C150.646 84.7111 152.922 84 156.047 84H164.528C167.652 84 169.914 84.7111 171.312 86.1333C172.741 87.5259 173.455 89.7778 173.455 92.8889V107.111ZM199.341 109.333H182.825V103.111L193.538 84.4444H202.465L191.753 103.111H199.341V96.4444H207.375V103.111H210.5V109.333H207.375V115.556H199.341V109.333Z" fill="#2138B4"/>
</g>
<g opacity="0.5">
<rect x="160" y="-300" width="400" height="400" rx="200" fill="#2138B4"/>
</g>
<g opacity="0.5">
<rect x="-240" y="100" width="400" height="459.429" rx="200" fill="#2138B4"/>
</g>
</g>
<defs>
<clipPath id="clip0_869_694">
<rect x="0.5" width="320" height="200" rx="2" fill="white"/>
</clipPath>
<clipPath id="clip1_869_694">
<rect width="100" height="32" fill="white" transform="translate(110.5 84)"/>
</clipPath>
</defs>
</svg>
