<svg width="35" height="35" viewBox="0 0 35 35" fill="none" xmlns="http://www.w3.org/2000/svg">
<path d="M17.6889 0.800049C8.36199 0.800049 0.799988 8.48046 0.799988 17.9534C0.799988 25.9912 6.24947 32.7167 13.5961 34.5778C13.5173 34.3463 13.4667 34.0775 13.4667 33.7445V30.8127C12.7812 30.8127 11.6328 30.8127 11.3443 30.8127C10.1888 30.8127 9.16139 30.3081 8.66317 29.3704C8.11006 28.3283 8.01436 26.7345 6.64354 25.7596C6.2368 25.4351 6.54643 25.0649 7.0151 25.1149C7.88065 25.3636 8.59843 25.9669 9.27399 26.8617C9.94673 27.7579 10.2634 27.9609 11.5202 27.9609C12.1296 27.9609 13.0416 27.9252 13.9001 27.788C14.3618 26.5972 15.1598 25.5008 16.1351 24.9834C10.5111 24.3959 7.82717 21.5542 7.82717 17.6961C7.82717 16.0351 8.52384 14.4284 9.70747 13.0747C9.31902 11.731 8.83065 8.99077 9.85665 7.94727C12.3872 7.94727 13.917 9.614 14.2844 10.0643C15.5454 9.62544 16.9303 9.37672 18.3855 9.37672C19.8436 9.37672 21.2341 9.62544 22.498 10.0671C22.8611 9.61972 24.3924 7.94727 26.9285 7.94727C27.9587 8.9922 27.4647 11.7439 27.0721 13.0847C28.2487 14.4355 28.9411 16.0379 28.9411 17.6961C28.9411 21.5513 26.2614 24.3916 20.6458 24.982C22.1912 25.801 23.3185 28.1024 23.3185 29.8364V33.7445C23.3185 33.8931 23.2861 34.0003 23.2692 34.1275C29.8503 31.7847 34.5778 25.438 34.5778 17.9534C34.5778 8.48046 27.0158 0.800049 17.6889 0.800049Z" fill="#2138B4"/>
</svg>
