<svg width="35" height="35" viewBox="0 0 35 35" fill="none" xmlns="http://www.w3.org/2000/svg">
<path d="M10.6491 0.800049C5.21791 0.800049 0.799988 5.22206 0.799988 10.6546V24.7287C0.799988 30.1599 5.222 34.5778 10.6546 34.5778H24.7287C30.1598 34.5778 34.5778 30.1558 34.5778 24.7232V10.6492C34.5778 5.21797 30.1558 0.800049 24.7232 0.800049H10.6491ZM27.5407 6.42968C28.3176 6.42968 28.9481 7.0602 28.9481 7.83709C28.9481 8.61397 28.3176 9.24449 27.5407 9.24449C26.7638 9.24449 26.1333 8.61397 26.1333 7.83709C26.1333 7.0602 26.7638 6.42968 27.5407 6.42968ZM17.6889 9.24449C22.346 9.24449 26.1333 13.0318 26.1333 17.6889C26.1333 22.346 22.346 26.1334 17.6889 26.1334C13.0318 26.1334 9.24443 22.346 9.24443 17.6889C9.24443 13.0318 13.0318 9.24449 17.6889 9.24449ZM17.6889 12.0593C16.1958 12.0593 14.7639 12.6524 13.7081 13.7082C12.6524 14.7639 12.0592 16.1959 12.0592 17.6889C12.0592 19.182 12.6524 20.6139 13.7081 21.6697C14.7639 22.7254 16.1958 23.3186 17.6889 23.3186C19.1819 23.3186 20.6139 22.7254 21.6696 21.6697C22.7254 20.6139 23.3185 19.182 23.3185 17.6889C23.3185 16.1959 22.7254 14.7639 21.6696 13.7082C20.6139 12.6524 19.1819 12.0593 17.6889 12.0593Z" fill="#2138B4"/>
</svg>
