<svg width="35" height="35" viewBox="0 0 34 34" fill="none" xmlns="http://www.w3.org/2000/svg">
  <path d="M29.7966 0.0400391H4.06117C1.84149 0.0400391 0.0400085 1.84152 0.0400085 4.0612V29.7966C0.0400085 32.0163 1.84149 33.8178 4.06117 33.8178H29.7966C32.0163 33.8178 33.8178 32.0163 33.8178 29.7966V4.0612C33.8178 1.84152 32.0163 0.0400391 29.7966 0.0400391ZM10.495 12.9078V28.1882H5.66964V12.9078H10.495ZM5.66964 8.46036C5.66964 7.33443 6.63472 6.4739 8.08234 6.4739C9.52995 6.4739 10.4387 7.33443 10.495 8.46036C10.495 9.58628 9.59429 10.4951 8.08234 10.4951C6.63472 10.4951 5.66964 9.58628 5.66964 8.46036ZM28.1882 28.1882H23.3628C23.3628 28.1882 23.3628 20.741 23.3628 20.1459C23.3628 18.5374 22.5585 16.9289 20.5479 16.8968H20.4836C18.5374 16.8968 17.7331 18.5535 17.7331 20.1459C17.7331 20.8777 17.7331 28.1882 17.7331 28.1882H12.9077V12.9078H17.7331V14.9666C17.7331 14.9666 19.2853 12.9078 22.4057 12.9078C25.5985 12.9078 28.1882 15.1033 28.1882 19.5507V28.1882Z" fill="#2138B4" />
</svg>