<svg width="28" height="28" viewBox="0 0 28 28" fill="none" xmlns="http://www.w3.org/2000/svg">
<path d="M14 28C14.9665 28 15.75 27.2165 15.75 26.25L15.75 11.5309C15.75 9.74912 17.9043 8.85678 19.1642 10.1167L24.29 15.2425C24.9755 15.928 26.0875 15.926 26.7706 15.2381C27.4503 14.5536 27.4483 13.4483 26.7662 12.7662L15.4142 1.41421C14.6332 0.633164 13.3668 0.633165 12.5858 1.41421L1.2343 12.7657C0.552616 13.4474 0.552616 14.5526 1.2343 15.2343C1.91556 15.9156 3.01994 15.9161 3.7018 15.2354L8.83705 10.1093C10.0975 8.85115 12.25 9.74387 12.25 11.5248L12.25 26.25C12.25 27.2165 13.0335 28 14 28Z" fill="#D8E3F2"/>
</svg>
