<svg width="32" height="32" viewBox="0 0 32 32" fill="none" xmlns="http://www.w3.org/2000/svg">
<path d="M27.2667 27.2667H22.5253V19.84C22.5253 18.0694 22.4933 15.7894 20.0587 15.7894C17.5893 15.7894 17.2107 17.72 17.2107 19.7094V27.2667H12.4693V11.9947H17.0213V14.0827H17.0853C18.0133 12.4987 19.7413 11.5494 21.576 11.616C26.3813 11.616 27.2693 14.776 27.2693 18.8907L27.2667 27.264V27.2667ZM7.12 9.90671C6.39166 9.90321 5.69412 9.61251 5.17885 9.09774C4.66358 8.58297 4.37221 7.88571 4.368 7.15737C4.368 5.64804 5.61067 4.40537 7.12 4.40537C8.62933 4.40537 9.86933 5.64804 9.872 7.15737C9.872 8.66671 8.62933 9.90671 7.12 9.90671ZM9.49067 27.2667H4.744V11.9947H9.49067V27.2667ZM29.6267 3.96353e-05H2.36C1.74173 -0.00355137 1.14703 0.236999 0.705128 0.669416C0.263224 1.10183 0.00982577 1.69118 0 2.30937V29.6907C0.00982577 30.3089 0.263224 30.8982 0.705128 31.3307C1.14703 31.7631 1.74173 32.0036 2.36 32H29.6293C30.249 32.0051 30.8457 31.7653 31.2896 31.3329C31.7335 30.9005 31.9888 30.3103 32 29.6907V2.30671C31.9888 1.68758 31.7333 1.09798 31.2892 0.666409C30.8452 0.234836 30.2485 -0.00372867 29.6293 0.00270611L29.6267 3.96353e-05Z" fill="#0A66C2"/>
</svg>
