<svg width="42" height="43" viewBox="0 0 42 43" fill="none" xmlns="http://www.w3.org/2000/svg">
<path d="M0.65625 22.6439C0.65625 33.8795 9.76446 42.9877 21 42.9877C32.2355 42.9877 41.3438 33.8795 41.3438 22.6439C41.3438 11.4084 32.2355 2.30017 21 2.30017C9.76446 2.30017 0.65625 11.4084 0.65625 22.6439Z" fill="black"/>
<path d="M21.0526 0.000275294C16.0581 -0.0190549 11.2208 1.79117 7.41102 5.10526C3.60123 8.41935 1.06908 13.0198 0.270127 18.0788C-0.528825 23.1378 0.457874 28.3233 3.0527 32.7024C5.64753 37.0815 9.68015 40.3666 14.425 41.9668C15.4737 42.139 15.8093 41.4718 15.8093 40.8907V37.2536C9.99961 38.5449 8.76217 34.4343 8.76217 34.4343C8.37049 33.0977 7.52138 31.9513 6.3712 31.2061C4.46261 29.8718 6.51801 29.9149 6.51801 29.9149C7.17637 30.0023 7.80696 30.2412 8.36264 30.6139C8.91832 30.9866 9.38471 31.4833 9.72696 32.067C10.3096 33.13 11.2776 33.914 12.4205 34.2485C13.5634 34.583 14.7888 34.4409 15.8302 33.8533C15.9258 32.7623 16.3938 31.7409 17.1516 30.9694C12.6632 30.4959 7.67155 28.6451 7.67155 20.4455C7.61089 18.2965 8.36241 16.2067 9.7689 14.6132C9.13034 12.7612 9.20536 10.7288 9.97864 8.93161C9.97864 8.93161 11.7404 8.35054 15.7463 11.0837C19.181 10.1363 22.7985 10.1363 26.2331 11.0837C30.239 8.30749 32.0008 8.93161 32.0008 8.93161C32.7741 10.7288 32.8491 12.7612 32.2105 14.6132C33.617 16.2067 34.3685 18.2965 34.3079 20.4455C34.3079 28.6666 29.4001 30.4744 24.723 31.0125C25.2267 31.532 25.6164 32.156 25.866 32.8427C26.1156 33.5293 26.2193 34.2628 26.1702 34.9939V40.8907C26.1702 41.4718 26.5057 42.1605 27.5754 41.9668C32.3116 40.3694 36.3384 37.0931 38.9338 32.7253C41.5292 28.3575 42.5234 23.1839 41.7382 18.132C40.953 13.0802 38.4397 8.48054 34.649 5.15783C30.8583 1.83513 26.0381 0.00665728 21.0526 0.000275294Z" fill="#D9D9D9"/>
</svg>
