<svg width="50" height="50" viewBox="0 0 50 50" fill="none" xmlns="http://www.w3.org/2000/svg">
<g clip-path="url(#clip0_563_93)">
<g clip-path="url(#clip1_563_93)">
<path d="M30.8464 39.0918C29.6318 40.8611 29.092 44.5738 38.7509 50.0172C38.7509 50.0172 34.6926 57.0461 33.4106 58.332C32.1285 59.6179 31.3477 63.0405 32.6008 64.7615C33.2495 65.6667 33.9927 66.4996 34.8179 67.2463C34.8179 67.2463 38.0183 67.8458 39.3871 67.0723C41.0804 65.1945 41.4622 62.4714 40.3511 60.198C40.3511 60.198 48.4965 51.6511 47.976 49.0793C47.4555 46.5075 34.6926 33.4841 30.8464 39.0918Z" fill="#3B26BF"/>
<path d="M16.4449 18.2466C16.4449 18.2466 6.60287 23.3322 6.68963 24.9468C6.77638 26.5614 9.46583 26.3391 10.5455 28.5048C10.5455 28.5048 4.52071 32.6816 4.9063 34.5959C5.29188 36.5103 9.17664 35.8141 10.1406 37.3321C10.1406 37.3321 9.17664 41.1415 10.0538 42.5337C10.9311 43.926 10.7961 42.7271 11.9818 44.4676C12.0685 44.5061 11.3745 30.2935 16.4449 18.2466Z" fill="#3B26BF"/>
<path d="M14.382 22.8681C17.8522 26.1747 22.2286 28.2534 26.2194 30.8156C28.9664 32.4627 31.3877 34.6029 33.3624 37.1291C35.753 40.339 34.3263 44.1193 34.924 48.0544C35.1071 49.3886 35.1939 50.7422 35.2517 52.0958C35.3546 54.5568 35.2838 57.0219 35.0397 59.4728C34.4324 65.3319 34.1335 70.1081 30.0078 74.4976C24.8602 79.9893 19.1922 81.2655 12.7625 76.4893C10.4964 75.0038 8.43231 73.2293 6.6221 71.2103C5.30147 69.6634 3.66274 68.6772 2.24572 67.2366C0.446347 65.3235 -1.69972 63.7714 -4.07787 62.6634C-6.56488 61.6966 -8.28073 63.0115 -9.50497 63.5722C-10.1315 63.8623 -10.9991 64.4231 -11.7028 63.8623C-11.9739 63.6585 -12.073 63.2965 -11.9438 62.9825C-11.5769 62.1014 -11.0207 61.3123 -10.3147 60.6717C-6.52633 57.1911 -0.405175 57.1137 4.14472 59.5598C5.87021 60.5267 7.74993 61.5419 9.74533 61.6676C11.1527 61.8318 12.5676 61.4284 13.6783 60.546C14.5399 59.7523 15.1075 58.6888 15.2881 57.5295C15.6096 55.9169 15.4931 54.2472 14.9507 52.6952C14.2085 50.4522 12.8782 48.4218 12.0106 46.2077C9.11876 38.676 8.1548 30.0904 12.8493 23.0518L13.5048 22.085L14.382 22.8681Z" fill="#3B26BF"/>
<path d="M-3.26819 62.9923C0.0478359 64.6553 3.57593 68.3777 6.95943 72.3901C11.384 77.6594 22.3828 85.4231 31.5501 73.2215C40.139 61.7354 36.1 45.6375 35.5987 43.8101L35.5409 43.6168C35.2517 43.2494 27.5978 33.4456 20.5802 32.0146C18.7101 33.6389 18.3438 36.5105 20.8308 41.4607C25.0241 49.7852 28.3786 61.9191 20.9272 69.3735C19.8177 70.5116 18.4574 71.3726 16.9557 71.8873C11.6636 73.6373 8.85844 70.4177 5.54241 67.3045C3.12882 64.9763 0.0467338 63.4679 -3.26819 62.9923Z" fill="white"/>
<path d="M36.823 51.1773C36.7748 50.5972 36.717 50.0461 36.6591 49.5144C29.5162 49.3403 25.8339 52.821 25.8339 52.821C29.2211 51.0887 33.0792 50.5117 36.823 51.1773Z" fill="#3B26BF"/>
<path d="M34.0082 41.7989C33.7287 41.4799 33.4202 41.1318 33.0443 40.7644C25.4579 40.7644 23.4047 44.3031 23.4047 44.3031C26.563 42.3083 30.2944 41.4271 34.0082 41.7989Z" fill="#3B26BF"/>
<path d="M36.7266 50.0849C36.5398 48.3661 36.2598 46.6587 35.8879 44.9703L35.3385 44.6319C32.9189 43.0463 22.2575 36.6168 19.1343 34.6831C19.0802 35.1585 19.0802 35.6386 19.1343 36.114C22.4118 40.7162 29.7668 48.509 36.7266 50.0849Z" fill="#3B26BF"/>
<path d="M11.9335 46.0822C12.7528 47.8708 13.4951 49.2534 13.5336 49.3791C13.5722 49.5048 18.6234 43.0463 17.6787 42.0021C16.734 40.9579 12.7336 44.6802 11.9335 46.0822Z" fill="#3B26BF"/>
<path d="M16.8882 36.8198C22.3539 42.1085 11.0081 49.1084 11.0081 49.1084C12.2419 49.8916 13.8035 52.5697 14.9699 54.5228C16.1363 56.4758 16.599 56.1567 18.0257 57.781C19.4524 59.4053 15.3844 61.8321 15.3844 61.8321C15.3844 61.8321 1.73476 54.4357 1.77315 49.6982C1.77315 49.1084 4.94475 43.8391 8.14509 40.5712C9.75491 38.9276 14.2759 34.2964 16.8882 36.8198Z" fill="#3B26BF"/>
<path d="M15.0664 21.3503C15.0664 21.3503 17.1196 9.20669 22.1419 9.00365C25.4483 8.85862 27.1159 13.0837 27.1159 13.0837C29.1411 13.0927 31.1214 13.6832 32.8226 14.7854C32.8226 14.7854 33.7865 13.1127 35.3192 13.6542C36.8519 14.1956 38.5967 17.7149 37.9701 23.4966C39.4867 23.7303 40.8141 24.6452 41.5753 25.9814C41.1692 26.5661 40.5488 26.9658 39.8498 27.0933C38.8087 27.1803 34.3167 25.5367 33.1021 26.6099C31.865 27.4783 31.2381 28.9844 31.4923 30.4773C31.4923 30.4773 26.5279 29.9745 24.3204 27.1416C22.113 24.3088 20.214 18.8171 15.0664 21.3503Z" fill="#3B26BF"/>
<path d="M32.1575 22.23C32.1575 22.23 33.3913 18.1499 35.7627 17.009C35.8469 18.984 36.0626 20.9511 36.4085 22.8971C35.0057 22.5918 33.5862 22.3691 32.1575 22.23Z" fill="white"/>
<path d="M21.4189 13.8669C21.4189 13.8669 24.4747 15.3462 26.5279 21.6984C24.2409 21.3079 21.9265 21.101 19.6067 21.0796C20.7438 18.8426 21.3632 16.3773 21.4189 13.8669Z" fill="white"/>
<path d="M22.6721 16.6899C23.4143 16.6899 24.0216 17.5214 24.0216 18.556C24.0216 19.5905 23.4143 20.4123 22.6721 20.4123C21.9298 20.4123 21.3225 19.5808 21.3225 18.556C21.3225 17.5311 21.9202 16.6899 22.6721 16.6899Z" fill="#3B26BF"/>
<path d="M34.0853 21.6403C34.6733 21.6403 35.1456 21.0119 35.1456 20.2287C35.1456 19.4456 34.6733 18.8171 34.0853 18.8171C33.9724 18.8234 33.8614 18.8496 33.7575 18.8945C33.4336 19.2706 33.1878 19.7077 33.0346 20.1804C33.0298 20.2124 33.0298 20.245 33.0346 20.2771C33.0249 21.0119 33.4973 21.6403 34.0853 21.6403Z" fill="#3B26BF"/>
<path d="M21.7081 24.3764C21.7081 24.3764 18.045 21.4759 16.1846 23.545C13.9675 26.0394 16.1846 29.9165 16.1846 29.9165C16.1846 29.9165 16.4545 28.2535 17.2835 27.7024C17.2835 27.7024 17.6113 32.9524 26.1327 38.7921C34.6541 44.6318 38.3653 43.9937 40.2258 43.5006C42.0862 43.0075 43.9756 41.6733 43.2623 40.1747C42.5489 38.6761 37.7388 34.6057 37.7388 34.6057C37.7388 34.6057 35.9169 34.828 32.2056 33.5228C28.4944 32.2176 23.53 29.6554 20.3296 25.2079C20.8031 24.9548 21.2632 24.6773 21.7081 24.3764Z" fill="#3B26BF"/>
<path d="M19.5681 31.2023C24.3402 30.0542 29.3672 31.4121 32.919 34.8087L31.955 34.2866C31.955 34.2866 36.3314 34.0739 36.9387 34.683C39.5355 36.4431 41.2006 39.2857 41.4693 42.4177C41.5946 43.9163 38.0569 44.7672 30.1717 40.8321C25.2748 38.357 19.5681 31.2023 19.5681 31.2023Z" fill="#3B26BF"/>
<path d="M37.3821 34.5768C37.3821 34.5768 36.3218 38.9373 34.683 38.4442C34.1336 38.2798 34.3553 37.0423 34.1336 36.1914C33.9118 35.3406 33.2756 33.7163 33.2756 33.7163L37.3821 34.5768Z" fill="white"/>
<path d="M45.489 32.9233C45.489 32.9233 45.1516 37.3998 43.4551 37.1871C42.8863 37.1194 42.9056 35.8625 42.5489 35.06C42.1923 34.2575 41.3151 32.7493 41.3151 32.7493L45.489 32.9233Z" fill="white"/>
<path d="M47.2915 28.998C47.0795 25.8461 42.9344 24.4635 39.8883 26.6776C37.4013 26.1265 34.6444 24.4635 32.1766 26.958C31.1677 27.8039 30.8548 29.226 31.4151 30.4193C31.4151 30.4193 26.2483 29.5878 24.465 26.9483C22.6816 24.3088 20.3488 20.7701 17.8522 20.5188C16.5219 20.3931 14.2759 20.1997 12.9746 22.7425C11.6732 25.2853 11.0466 29.8778 20.6862 37.1485C30.3258 44.4192 34.548 46.3819 36.6494 46.3723C39.3196 46.3723 39.4835 45.4053 42.5585 44.9413C44.1298 44.7189 45.3251 42.0407 43.5996 39.7203C42.1579 37.9013 40.4091 36.3501 38.4328 35.1375C38.3364 35.2341 42.1729 38.3184 42.8862 39.817C43.5996 41.3156 41.4885 42.2631 39.6377 42.7175C37.7869 43.1719 35.4059 43.6844 26.8941 37.8833C18.3824 32.0822 17.4666 26.2135 17.4666 26.2135C16.387 26.0491 16.2617 28.3986 16.2617 28.3986C16.2617 28.3986 15.0181 25.6817 16.6858 24.0574C18.7005 22.1237 20.7826 24.5118 20.7826 24.5118H20.6573C19.3945 23.9027 19.221 24.9953 19.221 24.9953C22.5776 29.3292 27.0126 32.7005 32.0802 34.7701C35.7915 36.0753 37.7387 34.6057 37.7387 34.6057C39.5011 34.5931 41.2602 34.451 43.0019 34.1803C44.3322 33.8225 47.5904 33.2618 47.2915 28.998Z" fill="white"/>
<path d="M34.9433 28.6595C35.8108 28.3888 36.4759 29.5587 35.3385 30.0614C35.1746 30.4965 35.4349 30.9703 36.1289 31.1346C35.4475 31.463 34.6296 31.1752 34.3022 30.4917C33.9748 29.8082 34.2618 28.9879 34.9433 28.6595Z" fill="#3B26BF"/>
<path d="M44.7179 28.3018C44.0045 28.0698 43.4551 29.0366 44.3997 29.462C44.5251 29.8198 44.313 30.2065 43.7346 30.3419C45.5661 30.7189 45.6625 28.6402 44.6986 28.3018" fill="#3B26BF"/>
</g>
</g>
<defs>
<clipPath id="clip0_563_93">
<rect width="50" height="50" fill="white"/>
</clipPath>
<clipPath id="clip1_563_93">
<rect width="60" height="83.2031" fill="white" transform="translate(-12 9)"/>
</clipPath>
</defs>
</svg>
