<svg width="64" height="64" viewBox="0 0 64 64" fill="none" xmlns="http://www.w3.org/2000/svg">
<path d="M11.53 36.72H1.54V32.94L8.02 21.6H13.42L6.94 32.94H11.53V28.89H16.39V32.94H18.28V36.72H16.39V40.5H11.53V36.72ZM34.7605 26.73C34.7605 25.65 34.2205 25.11 33.1405 25.11H30.1705C29.0905 25.11 28.5505 25.65 28.5505 26.73V35.37C28.5505 36.45 29.0905 36.99 30.1705 36.99H33.1405C34.2205 36.99 34.7605 36.45 34.7605 35.37V26.73ZM39.6205 35.37C39.6205 37.26 39.1885 38.637 38.3245 39.501C37.4785 40.347 36.1105 40.77 34.2205 40.77H29.0905C27.2005 40.77 25.8235 40.347 24.9595 39.501C24.1135 38.637 23.6905 37.26 23.6905 35.37V26.73C23.6905 24.84 24.1135 23.472 24.9595 22.626C25.8235 21.762 27.2005 21.33 29.0905 21.33H34.2205C36.1105 21.33 37.4785 21.762 38.3245 22.626C39.1885 23.472 39.6205 24.84 39.6205 26.73V35.37ZM55.2784 36.72H45.2884V32.94L51.7684 21.6H57.1684L50.6884 32.94H55.2784V28.89H60.1384V32.94H62.0284V36.72H60.1384V40.5H55.2784V36.72Z" fill="#26488C"/>
</svg>
