<svg width="32" height="32" viewBox="0 0 32 32" fill="none" xmlns="http://www.w3.org/2000/svg">
<g clip-path="url(#clip0_580_103)">
<path d="M0.5 17.5001C0.5 26.0605 7.43959 33.0001 16 33.0001C24.5604 33.0001 31.5 26.0605 31.5 17.5001C31.5 8.93971 24.5604 2.00012 16 2.00012C7.43959 2.00012 0.5 8.93971 0.5 17.5001Z" fill="black"/>
<path d="M16.0401 0.000238812C12.2347 -0.014489 8.54918 1.36473 5.64649 3.88975C2.7438 6.41478 0.814537 9.91984 0.205811 13.7743C-0.402914 17.6288 0.348857 21.5797 2.32587 24.9161C4.30288 28.2526 7.37535 30.7555 10.9905 31.9747C11.7895 32.1059 12.0452 31.5976 12.0452 31.1549V28.3837C7.61875 29.3676 6.67594 26.2357 6.67594 26.2357C6.37751 25.2173 5.73057 24.3439 4.85425 23.7761C3.40008 22.7595 4.9661 22.7923 4.9661 22.7923C5.46771 22.8589 5.94816 23.041 6.37153 23.3249C6.79491 23.6088 7.15026 23.9873 7.41101 24.432C7.8549 25.2419 8.59243 25.8392 9.46323 26.0941C10.334 26.3489 11.2677 26.2407 12.0611 25.793C12.1339 24.9617 12.4905 24.1836 13.0679 23.5958C9.64818 23.235 5.84499 21.8249 5.84499 15.5776C5.79877 13.9402 6.37136 12.348 7.44297 11.1339C6.95645 9.72283 7.01361 8.17434 7.60277 6.80507C7.60277 6.80507 8.94507 6.36234 11.9972 8.44478C14.6141 7.72294 17.3703 7.72294 19.9871 8.44478C23.0393 6.32955 24.3816 6.80507 24.3816 6.80507C24.9707 8.17434 25.0279 9.72283 24.5414 11.1339C25.613 12.348 26.1856 13.9402 26.1393 15.5776C26.1393 21.8413 22.4001 23.2186 18.8366 23.6286C19.2204 24.0244 19.5173 24.4998 19.7074 25.023C19.8976 25.5462 19.9766 26.105 19.9392 26.662V31.1549C19.9392 31.5976 20.1948 32.1223 21.0098 31.9747C24.6184 30.7577 27.6864 28.2615 29.6638 24.9336C31.6413 21.6057 32.3988 17.6639 31.8005 13.8149C31.2023 9.96588 29.2874 6.46139 26.3993 3.92981C23.5111 1.39822 19.8386 0.00510128 16.0401 0.000238812Z" fill="#D9D9D9"/>
</g>
<defs>
<clipPath id="clip0_580_103">
<rect y="0.00012207" width="32" height="32" fill="white"/>
</clipPath>
</defs>
</svg>
