<svg width="40" height="40" viewBox="0 0 40 40" fill="none" xmlns="http://www.w3.org/2000/svg">
<path d="M20.5 40C21.6046 40 22.5 39.1046 22.5 38L22.5 14.4034C22.5 12.6216 24.6543 11.7293 25.9142 12.9892L35.0558 22.1308C35.8388 22.9138 37.109 22.9115 37.8892 22.1258L38.5958 21.4142C39.3721 20.6324 39.3699 19.3699 38.5908 18.5908L21.4142 1.41421C20.6332 0.633163 19.3668 0.633165 18.5858 1.41421L1.41421 18.5858C0.633163 19.3668 0.633163 20.6332 1.41422 21.4142L2.11205 22.1121C2.8926 22.8926 4.15796 22.8932 4.93921 22.1133L14.0871 12.9818C15.3475 11.7236 17.5 12.6164 17.5 14.3973L17.5 38C17.5 39.1046 18.3954 40 19.5 40H20.5Z" fill="#D8E3F2"/>
</svg>
